<?xml version="1.0" encoding="UTF-8" standalone="no"?>
<svg
   width="720"
   height="1280"
   overflow="hidden"
   version="1.1"
   id="svg20"
   sodipodi:docname="cmc_taxonomy.svg"
   inkscape:version="1.3 (0e150ed6c4, 2023-07-21)"
   xmlns:inkscape="http://www.inkscape.org/namespaces/inkscape"
   xmlns:sodipodi="http://sodipodi.sourceforge.net/DTD/sodipodi-0.dtd"
   xmlns="http://www.w3.org/2000/svg"
   xmlns:svg="http://www.w3.org/2000/svg">
  <defs
     id="defs20" />
  <sodipodi:namedview
     id="namedview20"
     pagecolor="#ffffff"
     bordercolor="#000000"
     borderopacity="0.25"
     inkscape:showpageshadow="2"
     inkscape:pageopacity="0.0"
     inkscape:pagecheckerboard="0"
     inkscape:deskcolor="#d1d1d1"
     inkscape:zoom="1.23125"
     inkscape:cx="360.20305"
     inkscape:cy="851.16751"
     inkscape:window-width="3200"
     inkscape:window-height="1876"
     inkscape:window-x="-12"
     inkscape:window-y="-12"
     inkscape:window-maximized="1"
     inkscape:current-layer="g20" />
  <g
     id="g20">
    <g
       id="g5">
      <g
         id="g4">
        <g
           id="g3">
          <path
             d="M369.994 236.119 294.188 204.675 349.763 69.8812 425.812 101.325 369.994 236.119ZM386.325 65.25 403.144 72.3187C405.581 73.2937 406.556 75.975 405.581 78.1687 404.606 80.6062 401.925 81.5813 399.731 80.6062L382.913 73.5375C380.475 72.5625 379.5 69.8812 380.475 67.6875 381.206 65.4938 383.888 64.275 386.325 65.25ZM444.581 79.3875 351.956 41.1188C349.519 40.1437 347.081 41.3625 346.106 43.5563L272.981 220.519C272.006 222.956 273.225 225.394 275.419 226.369L368.044 264.638C370.481 265.612 372.919 264.394 373.894 262.2L446.775 85.2375C447.994 83.0437 446.775 80.3625 444.581 79.3875L444.581 79.3875Z"
             id="path1" />
          <path
             d="M414.6 222.956 408.994 214.669 419.962 207.356 416.794 191.269 430.444 182.006 427.275 165.919 440.925 156.9 438.244 143.981 447.75 142.031 451.65 161.288 438 170.55 441.169 186.637 427.519 195.656 430.931 211.987Z"
             id="path2" />
          <path
             d="M272.006 164.212 268.35 144.712 282 135.694 278.587 119.606 292.237 110.344 289.069 94.2562 305.4 83.2875 311.006 91.3313 300.038 98.6438 303.206 114.731 289.556 123.994 292.725 140.081 279.075 149.344 281.756 162.262Z"
             id="path3" />
        </g>
      </g>
    </g>
    <g
       id="g8">
      <g
         id="g7">
        <g
           id="g6">
          <path
             d="M362.833 323.539 266.5 381.923 266.5 489.95 362.833 548.333 459.167 489.95 459.167 381.923ZM450.868 383.521 410.292 408.112 322.257 354.757 362.833 330.167ZM362.833 436.873 274.799 383.521 316.792 358.069 404.826 411.424ZM272.167 388.547 360 441.783 360 539.989 272.167 486.756ZM365.667 539.989 365.667 441.783 453.5 388.547 453.5 486.756Z"
             id="path5" />
          <path
             d="M379.751 446.659 377 448.317 377 472.867 385.582 467.719 399.749 459.219 402.5 457.562 402.5 433.017 393.918 438.165ZM396.833 454.354 382.667 462.854 382.667 451.521 396.833 443.021Z"
             id="path6" />
        </g>
      </g>
    </g>
    <g
       id="g11"
       style="fill:#acacac;fill-opacity:1"
       transform="matrix(0.81336471,0,0,0.81336471,-9.8345403,168.3633)">
      <g
         id="g10"
         style="fill:#acacac;fill-opacity:1">
        <g
           id="g9"
           style="fill:#acacac;fill-opacity:1">
          <path
             d="M 441.6,645.347 H 278.4 c -4.986,0.052 -9.015,4.081 -9.067,9.066 v 110.166 c -0.041,4.966 3.951,9.025 8.917,9.066 0.05,10e-4 0.1,10e-4 0.15,0 h 99.733 l 36.267,37.067 v -36.8 h 27.2 c 4.986,-0.052 9.015,-4.081 9.067,-9.067 V 654.683 c 0.063,-5.078 -3.99,-9.252 -9.067,-9.336 z M 340.576,729.4 c -0.006,2.082 -1.694,3.768 -3.776,3.771 h -14.133 v -39.6 H 336.8 c 2.079,0.003 3.766,1.683 3.776,3.762 z m 55.619,-17.915 c -0.021,2.634 -1.86,4.904 -4.432,5.47 1.039,1.054 1.615,2.479 1.6,3.96 -0.009,3.12 -2.536,5.647 -5.656,5.656 h -0.566 c 0.988,1.005 1.532,2.364 1.51,3.773 -0.01,3.118 -2.535,5.644 -5.654,5.656 h -16.968 c -12.632,0 -13.104,-7.544 -19.797,-7.544 v -30.171 c 0.283,-0.189 16.968,-8.298 16.968,-22.629 0,-3.124 2.532,-5.656 5.656,-5.656 3.124,0 5.656,2.532 5.656,5.656 0.206,6.127 -0.753,12.238 -2.827,18.008 0.077,1.513 1.312,2.709 2.827,2.736 h 17.912 c 3.12,0.009 5.647,2.536 5.656,5.656 0.029,2.365 -1.449,4.487 -3.677,5.28 1.15,1.072 1.8,2.577 1.792,4.149 z"
             id="path8"
             style="fill:#acacac;fill-opacity:1" />
        </g>
      </g>
    </g>
    <path
       d="m 387.76757,947.69565 c -1.95456,-3.46656 -3.62901,-7.0819 -5.0087,-10.81409 -0.80838,-2.23852 -1.50142,-4.51689 -2.07606,-6.82665 l -45.81189,16.67417 c 1.04449,2.13875 1.97809,4.32956 2.79773,6.56397 1.34211,3.74588 2.38326,7.59172 3.11428,11.50361 z"
       fill-rule="evenodd"
       id="path11"
       style="fill:#acacac;fill-opacity:1" />
    <path
       d="m 243.33131,923.64536 c -30.87925,11.23912 -46.80064,45.38267 -35.56151,76.26191 11.23913,30.87923 45.38267,46.80063 76.2619,35.56153 30.87924,-11.2392 46.80064,-45.38269 35.56152,-76.26194 -11.23913,-30.87924 -45.38267,-46.80063 -76.26191,-35.5615 z m 7.92837,21.78301 c 8.66164,-3.18025 18.26235,1.26308 21.4426,9.92473 3.18026,8.66165 -1.26214,18.26201 -9.92473,21.44261 -8.66131,3.18118 -18.26201,-1.26214 -21.4426,-9.92473 -0.0112,-0.0289 -0.0216,-0.0592 -0.0325,-0.0893 -3.11874,-8.64467 1.33034,-18.18573 9.95721,-21.35333 z m 54.20059,51.49375 -62.62111,22.79228 -4.34673,-11.9426 c -0.83245,-2.4713 -0.5197,-5.1849 0.85182,-7.4017 3.42825,-5.02457 7.68132,-9.43201 12.57821,-13.03833 3.75955,-2.7518 7.86485,-4.99519 12.21115,-6.67288 4.39171,-1.5676 8.98643,-2.48969 13.6426,-2.73712 6.07261,-0.5778 12.19923,0.0688 18.01632,1.90281 2.47557,0.81655 4.45944,2.69427 5.41028,5.1225 z"
       fill-rule="evenodd"
       id="path12"
       style="fill:#acacac;fill-opacity:1" />
    <path
       d="m 435.9683,853.53122 c -30.87926,11.23913 -46.80064,45.38267 -35.56152,76.26192 11.23913,30.87924 45.38266,46.80064 76.26191,35.5615 30.87925,-11.23912 46.80064,-45.38264 35.56151,-76.26191 -11.23912,-30.87923 -45.38266,-46.80063 -76.2619,-35.56151 z m 7.92837,21.78303 c 8.66164,-3.18025 18.26234,1.26308 21.4426,9.92472 3.18025,8.66165 -1.26214,18.26201 -9.92473,21.4426 -8.66132,3.1812 -18.26202,-1.26214 -21.44261,-9.92473 -0.0112,-0.0289 -0.0216,-0.0591 -0.0325,-0.0893 -3.11873,-8.64467 1.33034,-18.18574 9.95723,-21.35333 z m 54.20059,51.49375 -62.62112,22.79222 -4.34672,-11.94255 c -0.83245,-2.47134 -0.51971,-5.18495 0.85182,-7.40173 3.42826,-5.02455 7.68132,-9.43198 12.5782,-13.03829 3.75956,-2.75181 7.86485,-4.9952 12.21116,-6.67289 4.39171,-1.56759 8.98643,-2.4897 13.6426,-2.73712 6.07261,-0.5778 12.19922,0.0688 18.01632,1.90281 2.47557,0.81655 4.45943,2.69427 5.41028,5.1225 z"
       fill-rule="evenodd"
       id="path13"
       style="fill:#acacac;fill-opacity:1" />
    <g
       id="g19"
       style="fill:#acacac;fill-opacity:1"
       transform="matrix(0.73341777,0,0,0.73341777,81.072517,281.01691)">
      <g
         id="g18"
         style="fill:#acacac;fill-opacity:1">
        <g
           id="g17"
           style="fill:#acacac;fill-opacity:1">
          <path
             d="m 176.312,42.9479 c 2.497,0 4.521,2.024 4.521,4.5209 v 90.4162 c 0,2.497 -2.024,4.521 -4.521,4.521 h -27.124 v 25.254 l -22.799,-22.799 -1.325,-1.325 H 40.6875 c -2.4969,0 -4.5208,-2.024 -4.5208,-4.52 V 47.4688 c 0,-2.4969 2.0239,-4.5209 4.5208,-4.5209 H 176.312 m 0,-4.5208 H 40.6875 c -4.9935,0 -9.0417,4.0482 -9.0417,9.0417 v 91.5472 c 0,4.993 4.0482,9.041 9.0417,9.041 h 82.5055 l 30.515,30.516 v -31.646 h 22.604 c 4.994,0 9.042,-4.048 9.042,-9.042 V 47.4688 c 0,-4.9935 -4.048,-9.0417 -9.042,-9.0417 z"
             transform="matrix(1.00461,0,0,1,251,1034)"
             id="path14"
             style="fill:#acacac;fill-opacity:1" />
          <path
             d="m 151.448,92.6771 c 0,3.7452 -3.036,6.7812 -6.781,6.7812 -3.746,0 -6.782,-3.036 -6.782,-6.7812 0,-3.7452 3.036,-6.7813 6.782,-6.7813 3.745,0 6.781,3.0361 6.781,6.7813 z"
             transform="matrix(1.00461,0,0,1,251,1034)"
             id="path15"
             style="fill:#acacac;fill-opacity:1" />
          <path
             d="m 115.281,92.6771 c 0,3.7452 -3.036,6.7812 -6.781,6.7812 -3.745,0 -6.781,-3.036 -6.781,-6.7812 0,-3.7452 3.036,-6.7813 6.781,-6.7813 3.745,0 6.781,3.0361 6.781,6.7813 z"
             transform="matrix(1.00461,0,0,1,251,1034)"
             id="path16"
             style="fill:#acacac;fill-opacity:1" />
          <path
             d="m 79.1146,92.6771 c 0,3.7452 -3.0361,6.7812 -6.7813,6.7812 -3.7451,0 -6.7812,-3.036 -6.7812,-6.7812 0,-3.7452 3.0361,-6.7813 6.7812,-6.7813 3.7452,0 6.7813,3.0361 6.7813,6.7813 z"
             transform="matrix(1.00461,0,0,1,251,1034)"
             id="path17"
             style="fill:#acacac;fill-opacity:1" />
        </g>
      </g>
    </g>
  </g>
</svg>
