<?xml version="1.0" encoding="UTF-8" standalone="no"?>
<svg
   width="720"
   height="1280"
   overflow="hidden"
   version="1.1"
   id="svg20"
   sodipodi:docname="cmc_taxonomy.svg"
   inkscape:version="1.3 (0e150ed6c4, 2023-07-21)"
   xmlns:inkscape="http://www.inkscape.org/namespaces/inkscape"
   xmlns:sodipodi="http://sodipodi.sourceforge.net/DTD/sodipodi-0.dtd"
   xmlns="http://www.w3.org/2000/svg"
   xmlns:svg="http://www.w3.org/2000/svg">
  <defs
     id="defs20" />
  <sodipodi:namedview
     id="namedview20"
     pagecolor="#ffffff"
     bordercolor="#000000"
     borderopacity="0.25"
     inkscape:showpageshadow="2"
     inkscape:pageopacity="0.0"
     inkscape:pagecheckerboard="0"
     inkscape:deskcolor="#d1d1d1"
     inkscape:zoom="1.23125"
     inkscape:cx="360.20305"
     inkscape:cy="851.16751"
     inkscape:window-width="3200"
     inkscape:window-height="1876"
     inkscape:window-x="-12"
     inkscape:window-y="-12"
     inkscape:window-maximized="1"
     inkscape:current-layer="svg20" />
  <g
     id="g20">
    <g
       id="g5">
      <g
         id="g4">
        <g
           id="g3">
          <path
             d="M369.994 236.119 294.188 204.675 349.763 69.8812 425.812 101.325 369.994 236.119ZM386.325 65.25 403.144 72.3187C405.581 73.2937 406.556 75.975 405.581 78.1687 404.606 80.6062 401.925 81.5813 399.731 80.6062L382.913 73.5375C380.475 72.5625 379.5 69.8812 380.475 67.6875 381.206 65.4938 383.888 64.275 386.325 65.25ZM444.581 79.3875 351.956 41.1188C349.519 40.1437 347.081 41.3625 346.106 43.5563L272.981 220.519C272.006 222.956 273.225 225.394 275.419 226.369L368.044 264.638C370.481 265.612 372.919 264.394 373.894 262.2L446.775 85.2375C447.994 83.0437 446.775 80.3625 444.581 79.3875L444.581 79.3875Z"
             id="path1" />
          <path
             d="M414.6 222.956 408.994 214.669 419.962 207.356 416.794 191.269 430.444 182.006 427.275 165.919 440.925 156.9 438.244 143.981 447.75 142.031 451.65 161.288 438 170.55 441.169 186.637 427.519 195.656 430.931 211.987Z"
             id="path2" />
          <path
             d="M272.006 164.212 268.35 144.712 282 135.694 278.587 119.606 292.237 110.344 289.069 94.2562 305.4 83.2875 311.006 91.3313 300.038 98.6438 303.206 114.731 289.556 123.994 292.725 140.081 279.075 149.344 281.756 162.262Z"
             id="path3" />
        </g>
      </g>
    </g>
    <g
       id="g8">
      <g
         id="g7">
        <g
           id="g6">
          <path
             d="M362.833 323.539 266.5 381.923 266.5 489.95 362.833 548.333 459.167 489.95 459.167 381.923ZM450.868 383.521 410.292 408.112 322.257 354.757 362.833 330.167ZM362.833 436.873 274.799 383.521 316.792 358.069 404.826 411.424ZM272.167 388.547 360 441.783 360 539.989 272.167 486.756ZM365.667 539.989 365.667 441.783 453.5 388.547 453.5 486.756Z"
             id="path5" />
          <path
             d="M379.751 446.659 377 448.317 377 472.867 385.582 467.719 399.749 459.219 402.5 457.562 402.5 433.017 393.918 438.165ZM396.833 454.354 382.667 462.854 382.667 451.521 396.833 443.021Z"
             id="path6" />
        </g>
      </g>
    </g>
    <g
       id="g11">
      <g
         id="g10">
        <g
           id="g9">
          <path
             d="M441.6 645.347 278.4 645.347C273.414 645.399 269.385 649.428 269.333 654.413L269.333 764.579C269.292 769.545 273.284 773.604 278.25 773.645 278.3 773.646 278.35 773.646 278.4 773.645L378.133 773.645 414.4 810.712 414.4 773.912 441.6 773.912C446.586 773.86 450.615 769.831 450.667 764.845L450.667 654.683C450.73 649.605 446.677 645.431 441.6 645.347ZM340.576 729.4C340.57 731.482 338.882 733.168 336.8 733.171L322.667 733.171 322.667 693.571 336.8 693.571C338.879 693.574 340.566 695.254 340.576 697.333ZM396.195 711.485C396.174 714.119 394.335 716.389 391.763 716.955 392.802 718.009 393.378 719.434 393.363 720.915 393.354 724.035 390.827 726.562 387.707 726.571L387.141 726.571C388.129 727.576 388.673 728.935 388.651 730.344 388.641 733.462 386.116 735.988 382.997 736L366.029 736C353.397 736 352.925 728.456 346.232 728.456L346.232 698.285C346.515 698.096 363.2 689.987 363.2 675.656 363.2 672.532 365.732 670 368.856 670 371.98 670 374.512 672.532 374.512 675.656 374.718 681.783 373.759 687.894 371.685 693.664 371.762 695.177 372.997 696.373 374.512 696.4L392.424 696.4C395.544 696.409 398.071 698.936 398.08 702.056 398.109 704.421 396.631 706.543 394.403 707.336 395.553 708.408 396.203 709.913 396.195 711.485Z"
             id="path8" />
        </g>
      </g>
    </g>
    <path
       d="M385 957C384.349 953.074 384.012 949.104 383.992 945.125 383.998 942.745 384.126 940.367 384.376 938L335.624 938C335.874 940.367 336.002 942.745 336.008 945.125 335.988 949.104 335.651 953.074 335 957Z"
       fill-rule="evenodd"
       id="path11" />
    <path
       d="M257.5 885C224.639 885 198 911.639 198 944.5 198 977.361 224.639 1004 257.5 1004 290.361 1004 317 977.361 317 944.5 317 911.639 290.361 885 257.5 885ZM257.5 908.181C266.727 908.155 274.229 915.614 274.255 924.841 274.281 934.068 266.823 941.57 257.595 941.596 248.368 941.623 240.866 934.164 240.84 924.936 240.84 924.905 240.84 924.873 240.84 924.841 240.866 915.651 248.31 908.207 257.5 908.181ZM290.82 975.107 224.18 975.107 224.18 962.398C224.243 959.791 225.465 957.348 227.512 955.734 232.452 952.185 237.956 949.498 243.791 947.784 248.265 946.484 252.89 945.78 257.548 945.69 262.211 945.719 266.844 946.424 271.304 947.784 277.208 949.318 282.744 952.021 287.583 955.734 289.63 957.348 290.852 959.791 290.915 962.398Z"
       fill-rule="evenodd"
       id="path12" />
    <path
       d="M462.5 885C429.639 885 403 911.639 403 944.5 403 977.361 429.639 1004 462.5 1004 495.361 1004 522 977.361 522 944.5 522 911.639 495.361 885 462.5 885ZM462.5 908.181C471.727 908.155 479.229 915.614 479.255 924.841 479.281 934.068 471.823 941.57 462.595 941.596 453.368 941.623 445.866 934.164 445.84 924.936 445.84 924.905 445.84 924.873 445.84 924.841 445.866 915.651 453.31 908.207 462.5 908.181ZM495.82 975.107 429.18 975.107 429.18 962.398C429.243 959.791 430.465 957.348 432.512 955.734 437.452 952.185 442.956 949.498 448.791 947.784 453.265 946.484 457.89 945.78 462.548 945.69 467.211 945.719 471.844 946.424 476.304 947.784 482.208 949.318 487.744 952.021 492.583 955.734 494.63 957.348 495.852 959.791 495.915 962.398Z"
       fill-rule="evenodd"
       id="path13" />
    <g
       id="g19">
      <g
         id="g18">
        <g
           id="g17">
          <path
             d="M176.312 42.9479C178.809 42.9479 180.833 44.9719 180.833 47.4688L180.833 137.885C180.833 140.382 178.809 142.406 176.312 142.406L149.188 142.406 149.188 167.66 126.389 144.861 125.064 143.536 40.6875 143.536C38.1906 143.536 36.1667 141.512 36.1667 139.016L36.1667 47.4688C36.1667 44.9719 38.1906 42.9479 40.6875 42.9479L176.312 42.9479M176.312 38.4271 40.6875 38.4271C35.694 38.4271 31.6458 42.4753 31.6458 47.4688L31.6458 139.016C31.6458 144.009 35.694 148.057 40.6875 148.057L123.193 148.057 153.708 178.573 153.708 146.927 176.312 146.927C181.306 146.927 185.354 142.879 185.354 137.885L185.354 47.4688C185.354 42.4753 181.306 38.4271 176.312 38.4271Z"
             transform="matrix(1.00461 0 0 1 251 1034)"
             id="path14" />
          <path
             d="M151.448 92.6771C151.448 96.4223 148.412 99.4583 144.667 99.4583 140.921 99.4583 137.885 96.4223 137.885 92.6771 137.885 88.9319 140.921 85.8958 144.667 85.8958 148.412 85.8958 151.448 88.9319 151.448 92.6771Z"
             transform="matrix(1.00461 0 0 1 251 1034)"
             id="path15" />
          <path
             d="M115.281 92.6771C115.281 96.4223 112.245 99.4583 108.5 99.4583 104.755 99.4583 101.719 96.4223 101.719 92.6771 101.719 88.9319 104.755 85.8958 108.5 85.8958 112.245 85.8958 115.281 88.9319 115.281 92.6771Z"
             transform="matrix(1.00461 0 0 1 251 1034)"
             id="path16" />
          <path
             d="M79.1146 92.6771C79.1146 96.4223 76.0785 99.4583 72.3333 99.4583 68.5882 99.4583 65.5521 96.4223 65.5521 92.6771 65.5521 88.9319 68.5882 85.8958 72.3333 85.8958 76.0785 85.8958 79.1146 88.9319 79.1146 92.6771Z"
             transform="matrix(1.00461 0 0 1 251 1034)"
             id="path17" />
        </g>
      </g>
    </g>
  </g>
</svg>
