<?xml version="1.0" encoding="UTF-8" standalone="no"?>
<!-- Created with Inkscape (http://www.inkscape.org/) -->

<svg
   version="1.1"
   id="svg2"
   width="2472.2852"
   height="6110.0669"
   viewBox="0 0 2472.2852 6110.0669"
   sodipodi:docname="plug-6183289_b.svg"
   inkscape:version="1.1.1 (3bf5ae0d25, 2021-09-20)"
   xmlns:inkscape="http://www.inkscape.org/namespaces/inkscape"
   xmlns:sodipodi="http://sodipodi.sourceforge.net/DTD/sodipodi-0.dtd"
   xmlns="http://www.w3.org/2000/svg"
   xmlns:svg="http://www.w3.org/2000/svg">
  <defs
     id="defs6">
    <clipPath
       clipPathUnits="userSpaceOnUse"
       id="clipPath18">
      <path
         d="M 0,4500 H 4500 V 0 H 0 Z"
         id="path16" />
    </clipPath>
  </defs>
  <sodipodi:namedview
     id="namedview4"
     pagecolor="#ffffff"
     bordercolor="#000000"
     borderopacity="0.25"
     inkscape:showpageshadow="2"
     inkscape:pageopacity="0.0"
     inkscape:pagecheckerboard="0"
     inkscape:deskcolor="#d1d1d1"
     inkscape:pageshadow="2"
     showgrid="false"
     inkscape:snap-center="true"
     fit-margin-top="0"
     fit-margin-left="0"
     fit-margin-right="0"
     fit-margin-bottom="0"
     inkscape:zoom="0.056568542"
     inkscape:cx="4551.9999"
     inkscape:cy="4092.3805"
     inkscape:window-width="1920"
     inkscape:window-height="1129"
     inkscape:window-x="1192"
     inkscape:window-y="1354"
     inkscape:window-maximized="1"
     inkscape:current-layer="g1841" />
  <g
     id="g8"
     inkscape:groupmode="layer"
     inkscape:label="plug-6183289"
     transform="matrix(1.3333333,0,0,-1.3333333,-1766.9003,6041.5919)">
    <path
       style="fill:none;stroke:#ffee17;stroke-width:76.4996;stroke-linecap:round;stroke-linejoin:round;stroke-miterlimit:4;stroke-dasharray:none;stroke-opacity:1"
       d="m 21824.439,1835.0051 h 395.093"
       id="path15669" />
    <path
       style="fill:none;stroke:#ffee17;stroke-width:76.4996;stroke-linecap:round;stroke-linejoin:round;stroke-miterlimit:4;stroke-dasharray:none;stroke-opacity:1"
       d="m 16322.29,10414.397 374.395,126.202"
       id="path15669-0" />
    <path
       style="fill:none;stroke:#ffee17;stroke-width:76.4996;stroke-linecap:round;stroke-linejoin:round;stroke-miterlimit:4;stroke-dasharray:none;stroke-opacity:1"
       d="m 19289.056,-8153.0104 358.85,-165.3032"
       id="path15669-2" />
    <path
       style="fill:none;stroke:#ffee17;stroke-width:76.4996;stroke-linecap:round;stroke-linejoin:round;stroke-miterlimit:4;stroke-dasharray:none;stroke-opacity:1"
       d="m -12349.458,2501.3516 h 395.093"
       id="path15669-3" />
    <path
       style="fill:none;stroke:#ffee17;stroke-width:76.4996;stroke-linecap:round;stroke-linejoin:round;stroke-miterlimit:4;stroke-dasharray:none;stroke-opacity:1"
       d="m -10084.964,9188.5412 358.1294,-166.8592"
       id="path15669-0-4" />
    <path
       style="fill:none;stroke:#ffee17;stroke-width:76.4996;stroke-linecap:round;stroke-linejoin:round;stroke-miterlimit:4;stroke-dasharray:none;stroke-opacity:1"
       d="m -19291.498,-6348.958 380.13,107.7008"
       id="path15669-2-6" />
    <g
       id="g1841"
       transform="translate(-136.31399,-860.55259)">
      <path
         style="fill:none;stroke:#333c49;stroke-width:37.5;stroke-linecap:butt;stroke-linejoin:miter;stroke-miterlimit:4;stroke-dasharray:none;stroke-opacity:1"
         d="m 2386.3141,2294.0182 c 0,0 22.2283,-6361.4727 39.1353,-6566.958 23.0066,-279.6179 28.3158,-746.8274 7.0789,-891.9456 -21.2368,-145.1181 28.3158,-325.631 -38.9341,-679.5776 -67.2499,-353.9467 -513.2226,28.3157 -513.2226,28.3157"
         id="path2420"
         sodipodi:nodetypes="csssc" />
      <path
         style="fill:none;stroke:#333c49;stroke-width:37.5;stroke-linecap:butt;stroke-linejoin:miter;stroke-miterlimit:4;stroke-dasharray:none;stroke-opacity:1"
         d="m 2386.2824,3927.0859 c 0,0 189.0994,10081.2311 201.8055,10481.4741 14.1578,445.973 106.184,1366.234 92.0261,1599.839 -12.8543,212.097 63.7104,983.971 63.7104,1224.655 0,240.684 -19.4329,4055.979 -19.4329,4055.979"
         id="path2422"
         sodipodi:nodetypes="csssc" />
      <path
         d="m 2107.4645,2629.9724 c 0,-154.049 124.929,-278.848 278.785,-278.848 153.922,0 278.85,124.799 278.85,278.848 v 146.799 h -557.635 z"
         style="fill:#333c49;fill-opacity:1;fill-rule:nonzero;stroke:none"
         id="path62" />
      <path
         d="m 2422.4941,2263.8902 c 9.264,0 18.467,3.594 25.59,10.59 6.932,7.123 10.463,16.322 10.463,25.652 v 24.014 h -144.466 v -24.014 c 0,-9.33 3.467,-18.529 10.463,-25.652 7.059,-6.996 16.262,-10.59 25.59,-10.59 z"
         style="fill:#3f4a5a;fill-opacity:1;fill-rule:nonzero;stroke:none"
         id="path54" />
      <path
         d="m 2350.0704,3957.2149 c -9.265,0 -18.531,-3.529 -25.591,-10.589 -6.931,-7.059 -10.4611,-16.326 -10.4611,-25.59 v -24.079 h 144.5281 v 24.079 c 0,9.264 -3.5301,18.531 -10.4631,25.59 -7.123,7.06 -16.3249,10.589 -25.6529,10.589 z"
         style="fill:#3f4a5a;fill-opacity:1;fill-rule:nonzero;stroke:none"
         id="path30" />
      <path
         d="m 2037.9426,3388.6159 c 0,-14.309 5.42,-28.618 16.262,-39.521 10.902,-10.842 25.086,-16.262 39.3319,-16.262 h 585.5551 c 14.1819,0 28.426,5.42 39.331,16.262 10.84,10.903 16.263,25.212 16.263,39.521 0,14.18 -5.423,28.552 -16.263,39.331 -10.905,10.967 -25.1491,16.387 -39.331,16.387 h -585.5551 c -14.2459,0 -28.4299,-5.42 -39.3319,-16.387 -10.842,-10.779 -16.262,-25.151 -16.262,-39.331"
         style="fill:#3f4a5a;fill-opacity:1;fill-rule:nonzero;stroke:none"
         id="path34" />
      <path
         d="m 2556.3145,3151.6811 c 9.38,-7.6269 21.628,-11.4079 33.956,-11.4079 12.247,0 24.572,3.781 33.953,11.4079 9.302,7.627 14.108,17.586 14.108,27.6701 v 153.4809 h -95.969 v -153.4809 c 0,-10.0841 4.649,-20.0431 13.952,-27.6701"
         style="fill:#ded7d7;fill-opacity:1;fill-rule:nonzero;stroke:none"
         id="path38" />
      <path
         d="m 2148.4034,3151.6812 c 9.381,-7.627 21.627,-11.408 33.875,-11.408 12.328,0 24.576,3.781 34.031,11.408 9.307,7.627 13.955,17.586 13.955,27.67 v 153.481 h -95.968 v -153.481 c 0,-10.084 4.726,-20.043 14.107,-27.67"
         style="fill:#ded7d7;fill-opacity:1;fill-rule:nonzero;stroke:none"
         id="path42" />
      <path
         d="m 2665.0992,3591.1959 c 0,153.982 -124.929,278.785 -278.787,278.785 -153.92,0 -278.784,-124.803 -278.784,-278.785 v -146.862 h 557.571 z"
         style="fill:#333c49;fill-opacity:1;fill-rule:nonzero;stroke:none"
         id="path46" />
      <path
         d="m 2665.1603,3606.1329 c 0,81.625 -35.234,155.054 -90.952,205.922 0,0 -0.316,0.187 -0.441,0.378 -2.837,2.647 -5.673,4.979 -8.321,7.31 -24.391,23.132 -39.645,55.972 -39.645,92.214 h -279.102 c 0,-36.242 -15.251,-69.082 -39.645,-92.214 -2.584,-2.331 -5.42,-4.663 -8.258,-7.31 -0.188,-0.191 -0.315,-0.317 -0.315,-0.317 -55.908,-50.929 -90.953,-124.358 -90.953,-205.983 v -146.736 h 557.632 z"
         style="fill:#333c49;fill-opacity:1;fill-rule:nonzero;stroke:none"
         id="path50" />
      <path
         d="m 2734.6857,2832.5524 c 0,14.246 -5.422,28.6149 -16.262,39.4589 -10.967,10.8401 -25.15,16.2621 -39.331,16.2621 h -585.556 c -14.246,0 -28.49,-5.422 -39.332,-16.2621 -10.842,-10.844 -16.262,-25.2129 -16.262,-39.4589 0,-14.2441 5.42,-28.551 16.262,-39.395 10.842,-10.904 25.086,-16.386 39.332,-16.386 h 585.556 c 14.181,0 28.364,5.482 39.331,16.386 10.84,10.844 16.262,25.1509 16.262,39.395"
         style="fill:#3f4a5a;fill-opacity:1;fill-rule:nonzero;stroke:none"
         id="path58" />
      <path
         d="m 2107.4038,2629.9723 c 0,-81.625 35.17,-155.057 90.951,-205.922 0.065,-0.064 0.315,-0.187 0.442,-0.377 2.837,-2.648 5.7359,-4.98 8.322,-7.31 24.39,-23.073 39.709,-55.975 39.709,-92.217 h 279.0369 c 0,36.242 15.2511,69.144 39.645,92.217 2.648,2.33 5.42,4.662 8.319,7.31 0.1271,0.19 0.317,0.313 0.4441,0.377 55.781,50.865 90.8269,124.297 90.8269,205.922 v 146.799 h -557.6959 z"
         style="fill:#333c49;fill-opacity:1;fill-rule:nonzero;stroke:none"
         id="path66" />
    </g>
    <g
       id="g1811"
       transform="matrix(0.03170926,0,0,0.03170926,2180.9364,2188.437)"
       style="fill:#333c49;fill-opacity:0">
      <g
         id="g68"
         transform="translate(1660.5342,1753.8711)"
         style="fill:#333c49;fill-opacity:0">
        <path
           d="m 0,0 c 2.559,4.096 6.277,6.919 11.147,8.457 4.866,1.537 10.957,2.306 18.26,2.306 7.303,0 13.129,-0.643 17.489,-1.922 4.355,-1.285 7.689,-2.822 9.996,-4.612 2.305,-1.796 3.969,-4.488 4.997,-8.073 1.537,-4.361 2.305,-11.021 2.305,-19.989 v -116.088 c 0,-33.827 -10.51,-64.578 -31.52,-92.255 -10.252,-13.069 -23.448,-23.64 -39.593,-31.713 -16.144,-8.072 -34.019,-12.108 -53.623,-12.108 -19.604,0 -37.419,4.101 -53.432,12.301 -16.018,8.198 -29.021,18.961 -39.015,32.289 -20.758,27.16 -31.137,57.912 -31.137,92.255 v 115.704 c 0,6.15 0.192,10.697 0.577,13.645 0.384,2.944 1.598,6.343 3.652,10.187 2.047,3.845 5.507,6.535 10.378,8.073 4.866,1.537 11.4,2.306 19.605,2.306 8.198,0 14.732,-0.769 19.603,-2.306 4.866,-1.538 8.2,-4.228 9.996,-8.073 3.074,-5.898 4.612,-13.97 4.612,-24.217 v -115.319 c 0,-15.634 3.844,-30.499 11.532,-44.59 3.844,-7.177 9.609,-12.944 17.298,-17.298 7.687,-4.36 16.781,-6.534 27.292,-6.534 18.703,0 32.674,6.919 41.899,20.757 9.226,13.838 13.838,29.85 13.838,48.049 v 117.626 c 0,9.995 1.28,17.039 3.844,21.142"
           style="fill:#333c49;fill-opacity:0;fill-rule:nonzero;stroke:none"
           id="path70" />
      </g>
      <g
         id="g72"
         transform="translate(1937.4912,1752.5254)"
         style="fill:#333c49;fill-opacity:0">
        <path
           d="m 0,0 c 2.433,4.48 6.085,7.496 10.956,9.033 4.865,1.538 10.955,2.307 18.259,2.307 7.304,0 13.195,-0.643 17.681,-1.922 4.482,-1.285 7.815,-2.823 9.996,-4.613 2.173,-1.796 3.777,-4.487 4.804,-8.073 1.537,-4.101 2.307,-10.636 2.307,-19.603 v -213.341 c 0,-6.15 -0.192,-10.637 -0.577,-13.454 -0.384,-2.822 -1.604,-6.15 -3.652,-9.994 -3.591,-6.919 -13.586,-10.379 -29.983,-10.379 -9.994,0 -16.913,0.768 -20.757,2.307 -3.845,1.537 -7.052,3.969 -9.61,7.303 -57.659,76.879 -95.589,127.104 -113.781,150.684 v -126.467 c 0,-6.15 -0.193,-10.637 -0.578,-13.454 -0.383,-2.822 -1.603,-6.15 -3.651,-9.994 -3.592,-6.919 -13.586,-10.379 -29.983,-10.379 -15.893,0 -25.628,3.46 -29.214,10.379 -2.054,3.844 -3.268,7.304 -3.652,10.379 -0.384,3.075 -0.577,7.555 -0.577,13.454 v 214.493 c 0,9.736 1.214,16.848 3.653,21.334 2.431,4.48 6.084,7.496 10.955,9.033 4.865,1.538 11.147,2.307 18.835,2.307 7.688,0 13.772,-0.709 18.258,-2.114 4.482,-1.412 7.623,-3.015 9.418,-4.805 1.022,-0.769 3.971,-4.103 8.841,-9.994 54.069,-73.553 90.201,-122.113 108.401,-145.687 V -21.334 C -3.651,-11.598 -2.438,-4.486 0,0"
           style="fill:#333c49;fill-opacity:0;fill-rule:nonzero;stroke:none"
           id="path74" />
      </g>
      <g
         id="g76"
         transform="translate(2171.3926,1636.6299)"
         style="fill:#333c49;fill-opacity:0">
        <path
           d="M 0,0 C 7.43,5.634 11.147,14.091 11.147,25.37 11.147,36.644 7.43,45.167 0,50.933 c -7.437,5.765 -15.124,8.648 -23.064,8.648 h -48.05 V -8.457 H -22.68 C -14.992,-8.457 -7.437,-5.64 0,0 M 68.807,70.729 C 75.468,57.143 78.801,42.025 78.801,25.37 78.801,8.709 75.468,-6.343 68.807,-19.797 62.14,-33.25 53.557,-43.953 43.052,-51.894 21.778,-68.297 -0.259,-76.495 -23.064,-76.495 h -48.05 v -43.437 c 0,-5.898 -0.192,-10.319 -0.576,-13.261 -0.385,-2.95 -1.604,-6.343 -3.652,-10.187 -3.592,-6.92 -13.587,-10.379 -29.983,-10.379 -17.941,0 -28.446,4.739 -31.521,14.223 -1.538,4.354 -2.306,11.015 -2.306,19.988 V 93.793 c 0,5.892 0.192,10.312 0.577,13.262 0.384,2.943 1.597,6.342 3.651,10.186 3.586,6.919 13.58,10.379 29.984,10.379 h 82.26 c 22.547,0 44.458,-8.205 65.732,-24.601 10.505,-7.947 19.088,-18.71 25.755,-32.29"
           style="fill:#333c49;fill-opacity:0;fill-rule:nonzero;stroke:none"
           id="path78" />
      </g>
      <g
         id="g80"
         transform="translate(2343.2129,1539.377)"
         style="fill:#333c49;fill-opacity:0">
        <path
           d="m 0,0 h 104.557 c 8.456,0 14.606,-0.961 18.451,-2.883 3.844,-1.922 6.402,-4.936 7.687,-9.033 1.28,-4.103 1.922,-9.55 1.922,-16.337 0,-6.793 -0.642,-12.24 -1.922,-16.337 -1.285,-4.102 -3.46,-6.919 -6.535,-8.457 -4.87,-2.564 -11.531,-3.844 -19.988,-3.844 H -34.211 c -17.94,0 -28.445,4.866 -31.52,14.608 -1.539,4.095 -2.307,10.631 -2.307,19.604 v 213.725 c 0,5.891 0.192,10.312 0.577,13.262 0.384,2.943 1.598,6.342 3.651,10.186 3.586,6.919 13.581,10.379 29.984,10.379 17.934,0 28.571,-4.745 31.904,-14.223 C -0.643,206.289 0,199.629 0,190.661 Z"
           style="fill:#333c49;fill-opacity:0;fill-rule:nonzero;stroke:none"
           id="path82" />
      </g>
      <g
         id="g84"
         transform="translate(2684.9385,1753.8711)"
         style="fill:#333c49;fill-opacity:0">
        <path
           d="m 0,0 c 2.559,4.096 6.277,6.919 11.147,8.457 4.866,1.537 10.957,2.306 18.26,2.306 7.303,0 13.129,-0.643 17.489,-1.922 4.355,-1.285 7.689,-2.822 9.996,-4.612 2.305,-1.796 3.969,-4.488 4.997,-8.073 1.537,-4.361 2.305,-11.021 2.305,-19.989 v -116.088 c 0,-33.827 -10.51,-64.578 -31.52,-92.255 -10.252,-13.069 -23.448,-23.64 -39.593,-31.713 -16.144,-8.072 -34.019,-12.108 -53.623,-12.108 -19.604,0 -37.419,4.101 -53.432,12.301 -16.018,8.198 -29.021,18.961 -39.015,32.289 -20.758,27.16 -31.137,57.912 -31.137,92.255 v 115.704 c 0,6.15 0.192,10.697 0.577,13.645 0.384,2.944 1.598,6.343 3.652,10.187 2.047,3.845 5.507,6.535 10.378,8.073 4.866,1.537 11.4,2.306 19.605,2.306 8.198,0 14.732,-0.769 19.603,-2.306 4.866,-1.538 8.2,-4.228 9.996,-8.073 3.074,-5.898 4.612,-13.97 4.612,-24.217 v -115.319 c 0,-15.634 3.844,-30.499 11.532,-44.59 3.844,-7.177 9.609,-12.944 17.298,-17.298 7.687,-4.36 16.781,-6.534 27.292,-6.534 18.703,0 32.674,6.919 41.899,20.757 9.226,13.838 13.838,29.85 13.838,48.049 v 117.626 c 0,9.995 1.28,17.039 3.844,21.142"
           style="fill:#333c49;fill-opacity:0;fill-rule:nonzero;stroke:none"
           id="path86" />
      </g>
      <g
         id="g88"
         transform="translate(2926.7236,1652.3896)"
         style="fill:#333c49;fill-opacity:0">
        <path
           d="m 0,0 h 67.654 c 13.838,-0.516 22.295,-4.102 25.37,-10.763 2.559,-4.871 3.844,-12.049 3.844,-21.526 v -84.567 c 0,-8.205 -3.592,-16.019 -10.764,-23.449 -21.525,-22.295 -53.815,-33.442 -96.867,-33.442 -38.187,0 -71.372,14.415 -99.559,43.245 -28.193,28.829 -42.283,63.617 -42.283,104.363 0,40.746 14.348,74.766 43.052,102.058 28.698,27.292 62.525,40.938 101.481,40.938 30.235,0 58.812,-9.994 85.72,-29.983 6.919,-5.129 10.379,-10.829 10.379,-17.105 0,-6.283 -2.949,-13.52 -8.841,-21.719 C 69.191,34.464 60.092,27.677 51.894,27.677 c -4.872,0 -12.685,3.519 -23.449,10.571 -10.762,7.045 -23.58,10.571 -38.439,10.571 -19.479,0 -36.777,-6.859 -51.894,-20.565 -15.124,-13.713 -22.679,-31.653 -22.679,-53.816 0,-22.168 7.687,-41.004 23.063,-56.506 15.376,-15.508 32.8,-23.256 52.278,-23.256 14.091,0 26.776,2.306 38.056,6.919 v 41.899 H -1.537 c -7.946,0 -13.587,1.021 -16.914,3.075 -3.333,2.048 -5.514,5.058 -6.534,9.034 -1.028,3.969 -1.538,9.351 -1.538,16.144 0,6.787 0.576,12.234 1.729,16.337 1.153,4.097 3.268,6.919 6.343,8.457 C -13.838,-1.152 -7.687,0 0,0"
           style="fill:#333c49;fill-opacity:0;fill-rule:nonzero;stroke:none"
           id="path90" />
      </g>
    </g>
  </g>
</svg>
